<svg width="20" height="26" viewBox="0 0 20 26" fill="none" xmlns="http://www.w3.org/2000/svg">
<path d="M10 25.5C7.10417 24.7708 4.71333 23.1092 2.8275 20.515C0.941667 17.9208 -0.000832781 15.0408 5.5212e-07 11.875V4.25L10 0.5L20 4.25V11.875C20 15.0417 19.0575 17.9221 17.1725 20.5163C15.2875 23.1104 12.8967 24.7717 10 25.5ZM10 22.875C12.0208 22.25 13.7083 21.0154 15.0625 19.1712C16.4167 17.3271 17.2083 15.27 17.4375 13H10V3.15625L2.5 5.96875V12.4375C2.5 12.5833 2.52083 12.7708 2.5625 13H10V22.875Z" fill="#9DFF3A"/>
</svg>
